<svg xmlns="http://www.w3.org/2000/svg" xmlns:xlink="http://www.w3.org/1999/xlink" viewBox="0,0,256,256" width="50px" height="50px" fill-rule="nonzero"><g fill="#120000" fill-rule="nonzero" stroke="none" stroke-width="1" stroke-linecap="butt" stroke-linejoin="miter" stroke-miterlimit="10" stroke-dasharray="" stroke-dashoffset="0" font-family="none" font-weight="none" font-size="none" text-anchor="none" style="mix-blend-mode: normal"><path d="M0,256v-256h256v256z" id="bgRectangle"></path></g><g fill="#fcfcfc" fill-rule="nonzero" stroke="none" stroke-width="1" stroke-linecap="butt" stroke-linejoin="miter" stroke-miterlimit="10" stroke-dasharray="" stroke-dashoffset="0" font-family="none" font-weight="none" font-size="none" text-anchor="none" style="mix-blend-mode: normal"><g transform="scale(5.12,5.12)"><path d="M22,2c0,0 0.01953,1.94922 0,2.60156c0,0.01563 0.10938,1.28906 -0.72266,3.53125c-0.55469,1.41406 -1.64062,2.35156 -2.37109,2.61328c-8.57812,2.60547 -13.90625,9.37109 -13.90625,17.65625c0,10.80469 8.97266,19.59766 20,19.59766c11.02734,0 20,-8.79297 20,-19.59766c0,-8.95312 -6.37109,-16.28906 -15.85547,-18.27344l-0.02734,-0.00391c-0.51953,-0.14062 -1.74219,-0.23047 -5.11719,-5.125c-0.51172,-0.74219 -2,-3 -2,-3zM20.59766,24c2.95313,0 5.35156,1.54688 7.27734,2.78906c1.14453,0.73828 2.20313,1.43359 2.88281,1.41406c0.76172,-0.00391 2.25,-0.96094 3.44531,-1.73047c1.57422,-1.01562 3.0625,-1.97266 4.29688,-1.97266c2.41797,0 3.5,2.05859 3.5,4.09766c0,1.21484 -0.42969,3.57813 -1.60937,5.10938c-1.07031,1.39453 -1.83984,2.23047 -3.56641,2.08984c-1.00781,-0.07422 -2.01172,-1.01562 -3.28125,-2.20312c-0.875,-0.82031 -2.19922,-2.0625 -2.79687,-2.09375c-0.63281,-0.03516 -1.62109,0.58594 -2.76562,1.30078c-1.93359,1.19922 -4.57812,2.84375 -8.28906,3.19531c-0.21875,0.01953 -0.46094,0.03125 -0.71484,0.03125c-1.19922,0 -2.71484,-0.25391 -3.83203,-0.99609c-1.89062,-1.25781 -2.14453,-2.94531 -2.14453,-4.43359c0,-3.76172 3.26953,-6.59766 7.59766,-6.59766zM20.59766,26c-3.19141,0 -5.59766,1.97656 -5.59766,4.59766c0,1.44922 0.31641,2.14453 1.25391,2.76953c0.81641,0.54297 2.25,0.73047 3.25,0.63672c3.24219,-0.30469 5.55859,-1.74219 7.41797,-2.89844c0.82422,-0.51562 1.55078,-0.96484 2.25,-1.25781c-0.75,-0.32031 -1.53516,-0.82812 -2.38672,-1.37891c-1.79297,-1.15625 -3.82031,-2.46875 -6.1875,-2.46875zM38.5,26.5c-0.64453,0 -2.07031,0.91797 -3.21875,1.65625c-1.09766,0.70703 -2.15234,1.38672 -3.125,1.75391c0.89844,0.48828 1.80859,1.33594 2.75,2.21875c0.67969,0.63672 1.70313,1.59375 2.07813,1.67188c0.63672,0.05859 0.84766,-0.04687 1.82422,-1.3125c0.82031,-1.06641 1.19141,-2.91797 1.19141,-3.89062c0,-0.62891 -0.14453,-2.09766 -1.5,-2.09766zM30.60547,35c3.21875,0 4.22656,2.53516 4.26563,2.64063c0.19922,0.51563 -0.05859,1.09375 -0.57422,1.29297c-0.11719,0.04688 -0.24219,0.06641 -0.35937,0.06641c-0.40234,0 -0.78125,-0.24609 -0.93359,-0.64062c-0.05469,-0.12891 -0.61719,-1.35937 -2.39844,-1.35937c-1.99219,0 -2.60156,1.24609 -2.66406,1.39063c-0.22266,0.5 -0.80469,0.73438 -1.30469,0.51953c-0.50391,-0.21094 -0.75,-0.77734 -0.54297,-1.28516c0.04297,-0.10547 1.09766,-2.625 4.51172,-2.625zM32.80859,40.03906c0.37891,-0.07422 0.78906,0.07813 1.01953,0.42578c0.30859,0.45703 0.1875,1.07813 -0.26953,1.38672c-0.90234,0.60938 -2.67969,1.80469 -5.42969,1.80469c-0.33594,0 -0.68359,-0.01953 -1.05078,-0.05859c-2.14062,-0.22656 -3.73828,-0.84766 -4.75781,-1.83984c-0.39453,-0.38672 -0.40234,-1.01953 -0.01562,-1.41406c0.38672,-0.39453 1.01953,-0.40234 1.41406,-0.01562c0.67969,0.66016 1.91406,1.10547 3.57422,1.28125c2.625,0.27734 4.26563,-0.82422 5.14453,-1.41797c0.11719,-0.07812 0.24219,-0.12891 0.37109,-0.15234z"></path></g></g></svg>