<svg xmlns="http://www.w3.org/2000/svg"  viewBox="0 0 50 50" width="50px" height="50px"><path d="M 22 2 C 22 2 22.019531 3.949219 22 4.601563 C 22 4.617188 22.109375 5.890625 21.277344 8.132813 C 20.722656 9.546875 19.636719 10.484375 18.90625 10.746094 C 10.328125 13.351563 5 20.117188 5 28.402344 C 5 39.207031 13.972656 48 25 48 C 36.027344 48 45 39.207031 45 28.402344 C 45 19.449219 38.628906 12.113281 29.144531 10.128906 L 29.117188 10.125 C 28.597656 9.984375 27.375 9.894531 24 5 C 23.488281 4.257813 22 2 22 2 Z M 20.597656 24 C 23.550781 24 25.949219 25.546875 27.875 26.789063 C 29.019531 27.527344 30.078125 28.222656 30.757813 28.203125 C 31.519531 28.199219 33.007813 27.242188 34.203125 26.472656 C 35.777344 25.457031 37.265625 24.5 38.5 24.5 C 40.917969 24.5 42 26.558594 42 28.597656 C 42 29.8125 41.570313 32.175781 40.390625 33.707031 C 39.320313 35.101563 38.550781 35.9375 36.824219 35.796875 C 35.816406 35.722656 34.8125 34.78125 33.542969 33.59375 C 32.667969 32.773438 31.34375 31.53125 30.746094 31.5 C 30.113281 31.464844 29.125 32.085938 27.980469 32.800781 C 26.046875 34 23.402344 35.644531 19.691406 35.996094 C 19.472656 36.015625 19.230469 36.027344 18.976563 36.027344 C 17.777344 36.027344 16.261719 35.773438 15.144531 35.03125 C 13.253906 33.773438 13 32.085938 13 30.597656 C 13 26.835938 16.269531 24 20.597656 24 Z M 20.597656 26 C 17.40625 26 15 27.976563 15 30.597656 C 15 32.046875 15.316406 32.742188 16.253906 33.367188 C 17.070313 33.910156 18.503906 34.097656 19.503906 34.003906 C 22.746094 33.699219 25.0625 32.261719 26.921875 31.105469 C 27.746094 30.589844 28.472656 30.140625 29.171875 29.847656 C 28.421875 29.527344 27.636719 29.019531 26.785156 28.46875 C 24.992188 27.3125 22.964844 26 20.597656 26 Z M 38.5 26.5 C 37.855469 26.5 36.429688 27.417969 35.28125 28.15625 C 34.183594 28.863281 33.128906 29.542969 32.15625 29.910156 C 33.054688 30.398438 33.964844 31.246094 34.90625 32.128906 C 35.585938 32.765625 36.609375 33.722656 36.984375 33.800781 C 37.621094 33.859375 37.832031 33.753906 38.808594 32.488281 C 39.628906 31.421875 40 29.570313 40 28.597656 C 40 27.96875 39.855469 26.5 38.5 26.5 Z M 30.605469 35 C 33.824219 35 34.832031 37.535156 34.871094 37.640625 C 35.070313 38.15625 34.8125 38.734375 34.296875 38.933594 C 34.179688 38.980469 34.054688 39 33.9375 39 C 33.535156 39 33.15625 38.753906 33.003906 38.359375 C 32.949219 38.230469 32.386719 37 30.605469 37 C 28.613281 37 28.003906 38.246094 27.941406 38.390625 C 27.71875 38.890625 27.136719 39.125 26.636719 38.910156 C 26.132813 38.699219 25.886719 38.132813 26.09375 37.625 C 26.136719 37.519531 27.191406 35 30.605469 35 Z M 32.808594 40.039063 C 33.1875 39.964844 33.597656 40.117188 33.828125 40.464844 C 34.136719 40.921875 34.015625 41.542969 33.558594 41.851563 C 32.65625 42.460938 30.878906 43.65625 28.128906 43.65625 C 27.792969 43.65625 27.445313 43.636719 27.078125 43.597656 C 24.9375 43.371094 23.339844 42.75 22.320313 41.757813 C 21.925781 41.371094 21.917969 40.738281 22.304688 40.34375 C 22.691406 39.949219 23.324219 39.941406 23.71875 40.328125 C 24.398438 40.988281 25.632813 41.433594 27.292969 41.609375 C 29.917969 41.886719 31.558594 40.785156 32.4375 40.191406 C 32.554688 40.113281 32.679688 40.0625 32.808594 40.039063 Z"/></svg>